<?xml version="1.0" encoding="UTF-8"?>
<svg width="639px" height="98px" viewBox="0 0 639 98" version="1.1" xmlns="http://www.w3.org/2000/svg" xmlns:xlink="http://www.w3.org/1999/xlink">
    <!-- Generator: Sketch 55 (78076) - https://sketchapp.com -->
    <title>Jang Haemin</title>
    <desc>Created with Sketch.</desc>
    <g id="Page-1" stroke="none" stroke-width="1" fill="none" fill-rule="evenodd">
        <path d="M0,52.734375 L19.8242188,52.734375 C19.8242188,58.2519531 22.7050781,61.5722656 27.4414062,61.5722656 C31.9824219,61.5722656 34.4238281,58.6914062 34.4238281,53.0761719 L34.4238281,7.2265625 L55.1269531,7.2265625 L55.1269531,53.2226562 C55.1269531,69.7265625 44.921875,78.90625 27.734375,78.90625 C10.6445312,78.90625 0,68.9941406 0,52.734375 Z M88.4765625,65.0878906 C92.8710938,65.0878906 97.0214844,62.5976562 97.0214844,58.6425781 L97.0214844,55.1269531 L88.5253906,55.7128906 C84.765625,55.9570312 82.5683594,57.7636719 82.5683594,60.4492188 C82.5683594,63.3789062 84.9609375,65.0878906 88.4765625,65.0878906 Z M81.0058594,78.4667969 C71.1914062,78.4667969 62.8417969,71.7285156 62.8417969,62.0117188 C62.8417969,51.6601562 70.8007812,46.09375 85.2050781,45.1660156 L97.0214844,44.4335938 L97.0214844,41.796875 C97.0214844,38.2324219 94.2871094,36.2304688 90.5273438,36.2304688 C86.4257812,36.2304688 83.8378906,38.4765625 83.4960938,41.2109375 L65.625,41.2109375 C66.1132812,29.6875 75.8789062,22.4121094 91.6015625,22.4121094 C106.542969,22.4121094 116.552734,29.8828125 116.552734,40.8203125 L116.552734,77.6855469 L97.0214844,77.6855469 L97.0214844,70.4589844 L96.6308594,70.4589844 C93.7988281,75.7324219 87.2070312,78.4667969 81.0058594,78.4667969 Z M124.072266,77.6855469 L124.072266,23.7792969 L143.603516,23.7792969 L143.603516,34.375 L143.994141,34.375 C146.728516,26.8066406 152.34375,22.7050781 160.546875,22.7050781 C166.601562,22.7050781 171.240234,24.5117188 174.462891,28.0761719 C177.685547,31.640625 179.296875,36.6699219 179.296875,43.1640625 L179.296875,77.6855469 L159.277344,77.6855469 L159.277344,47.6074219 C159.277344,42.1875 156.738281,38.8671875 151.708984,38.8671875 C149.316406,38.8671875 147.460938,39.6972656 146.142578,41.3085938 C144.775391,42.96875 144.091797,45.0683594 144.091797,47.5585938 L144.091797,77.6855469 L124.072266,77.6855469 Z M214.257812,62.5488281 C219.677734,62.5488281 222.851562,58.5449219 222.851562,50.78125 C222.851562,43.1152344 219.580078,38.4277344 214.257812,38.4277344 C208.935547,38.4277344 205.712891,43.1152344 205.712891,50.7324219 C205.712891,58.4960938 208.837891,62.5488281 214.257812,62.5488281 Z M213.476562,97.9980469 C197.167969,97.9980469 187.207031,90.8691406 186.425781,80.9082031 L205.664062,80.9082031 C206.25,83.4960938 209.423828,85.3515625 213.916016,85.3515625 C219.824219,85.3515625 222.753906,82.2753906 222.753906,77.734375 L222.753906,67.3828125 L222.363281,67.3828125 C220.605469,73.046875 214.306641,77.0019531 206.25,77.0019531 C193.652344,77.0019531 185.205078,67.4804688 185.205078,50.5859375 C185.205078,33.3007812 193.115234,22.9980469 206.542969,22.9980469 C214.404297,22.9980469 220.214844,27.4902344 222.363281,33.4960938 L222.753906,33.4960938 L222.753906,23.7792969 L242.773438,23.7792969 L242.773438,77.2460938 C242.773438,90.0878906 230.761719,97.9980469 213.476562,97.9980469 Z M336.669922,77.6855469 L315.966797,77.6855469 L315.966797,50.4394531 L291.162109,50.4394531 L291.162109,77.6855469 L270.458984,77.6855469 L270.458984,7.2265625 L291.162109,7.2265625 L291.162109,33.984375 L315.966797,33.984375 L315.966797,7.2265625 L336.669922,7.2265625 L336.669922,77.6855469 Z M368.212891,65.0878906 C372.607422,65.0878906 376.757812,62.5976562 376.757812,58.6425781 L376.757812,55.1269531 L368.261719,55.7128906 C364.501953,55.9570312 362.304688,57.7636719 362.304688,60.4492188 C362.304688,63.3789062 364.697266,65.0878906 368.212891,65.0878906 Z M360.742188,78.4667969 C350.927734,78.4667969 342.578125,71.7285156 342.578125,62.0117188 C342.578125,51.6601562 350.537109,46.09375 364.941406,45.1660156 L376.757812,44.4335938 L376.757812,41.796875 C376.757812,38.2324219 374.023438,36.2304688 370.263672,36.2304688 C366.162109,36.2304688 363.574219,38.4765625 363.232422,41.2109375 L345.361328,41.2109375 C345.849609,29.6875 355.615234,22.4121094 371.337891,22.4121094 C386.279297,22.4121094 396.289062,29.8828125 396.289062,40.8203125 L396.289062,77.6855469 L376.757812,77.6855469 L376.757812,70.4589844 L376.367188,70.4589844 C373.535156,75.7324219 366.943359,78.4667969 360.742188,78.4667969 Z M430.419922,36.1816406 C425.927734,36.1816406 422.412109,39.5507812 422.021484,44.140625 L438.818359,44.140625 C438.671875,41.7480469 437.792969,39.7949219 436.279297,38.3300781 C434.716797,36.9140625 432.763672,36.1816406 430.419922,36.1816406 Z M439.404297,60.2050781 L457.226562,60.2050781 C455.566406,71.7773438 445.458984,79.0527344 430.615234,79.0527344 C412.988281,79.0527344 402.441406,68.6035156 402.441406,51.0253906 C402.294922,33.5449219 413.134766,22.3144531 429.980469,22.4121094 C446.679688,22.4121094 457.470703,33.0566406 457.470703,49.5605469 L457.470703,54.9804688 L421.728516,54.9804688 L421.728516,56.25 C421.728516,61.5234375 425.537109,65.3320312 430.908203,65.3320312 C434.960938,65.3320312 438.232422,63.4765625 439.404297,60.2050781 Z M463.574219,77.6855469 L463.574219,23.7792969 L483.105469,23.7792969 L483.105469,34.6679688 L483.496094,34.6679688 C485.546875,27.34375 491.552734,22.7050781 498.925781,22.7050781 C507.128906,22.7050781 512.597656,27.0019531 513.916016,34.5703125 L514.306641,34.5703125 C516.064453,27.4902344 522.705078,22.7050781 530.859375,22.7050781 C541.210938,22.6074219 548.681641,30.3710938 548.583984,41.2597656 L548.583984,77.6855469 L528.564453,77.6855469 L528.564453,46.4355469 C528.564453,41.3085938 526.367188,38.7695312 522.021484,38.7695312 C517.96875,38.7695312 515.576172,41.6503906 515.576172,46.3867188 L515.576172,77.6855469 L496.582031,77.6855469 L496.582031,46.484375 C496.582031,41.3574219 494.433594,38.7695312 490.087891,38.7695312 C486.035156,38.7695312 483.59375,41.6992188 483.59375,46.3867188 L483.59375,77.6855469 L463.574219,77.6855469 Z M555.908203,77.6855469 L555.908203,23.7792969 L575.927734,23.7792969 L575.927734,77.6855469 L555.908203,77.6855469 Z M565.820312,18.6523438 C560.546875,18.6523438 556.298828,14.4042969 556.298828,9.32617188 C556.298828,4.24804688 560.546875,0 565.820312,0 C571.09375,0 575.341797,4.24804688 575.341797,9.32617188 C575.341797,14.4042969 571.09375,18.6523438 565.820312,18.6523438 Z M583.447266,77.6855469 L583.447266,23.7792969 L602.978516,23.7792969 L602.978516,34.375 L603.369141,34.375 C606.103516,26.8066406 611.71875,22.7050781 619.921875,22.7050781 C625.976562,22.7050781 630.615234,24.5117188 633.837891,28.0761719 C637.060547,31.640625 638.671875,36.6699219 638.671875,43.1640625 L638.671875,77.6855469 L618.652344,77.6855469 L618.652344,47.6074219 C618.652344,42.1875 616.113281,38.8671875 611.083984,38.8671875 C608.691406,38.8671875 606.835938,39.6972656 605.517578,41.3085938 C604.150391,42.96875 603.466797,45.0683594 603.466797,47.5585938 L603.466797,77.6855469 L583.447266,77.6855469 Z" id="Jang-Haemin" fill="#333333"></path>
    </g>
</svg>