<?xml version="1.0" encoding="UTF-8"?>
<svg width="371px" height="58px" viewBox="0 0 371 58" version="1.1" xmlns="http://www.w3.org/2000/svg" xmlns:xlink="http://www.w3.org/1999/xlink">
    <!-- Generator: Sketch 52.5 (67469) - http://www.bohemiancoding.com/sketch -->
    <title>Group</title>
    <desc>Created with Sketch.</desc>
    <g id="Page-1" stroke="none" stroke-width="1" fill="none" fill-rule="evenodd">
        <g id="Group" fill="#333333">
            <path d="M0.732421875,32.2304688 L11.0742188,32.2304688 C11.1035156,35.5996094 13.0664062,37.7089844 16.1425781,37.7089844 C19.3066406,37.7089844 21.0351562,35.6875 21.0351562,31.9375 L21.0351562,3.72460938 L31.7578125,3.72460938 L31.7578125,31.9960937 C31.7578125,41.5175781 25.9277344,46.7910156 16.2597656,46.7910156 C6.76757812,46.7910156 0.732421875,41.1953125 0.732421875,32.2304688 Z" id="Path"></path>
            <path d="M47.4609375,46.46875 C41.5722656,46.46875 36.7382812,42.5136719 36.7382812,36.7714844 C36.7382812,30.7949219 41.3671875,27.4550781 49.5996094,26.9570312 L57.0703125,26.5175781 L57.0703125,24.7011719 C57.0703125,22.1523438 55.2539062,20.7460938 52.5292969,20.7460938 C49.7167969,20.7460938 47.9589844,22.2109375 47.6367188,24.1738281 L38.2910156,24.1738281 C38.5839844,17.6699219 44.1503906,13.3339844 53.0566406,13.3339844 C61.4941406,13.2753906 67.2949219,17.7871094 67.2363281,24.1152344 L67.2363281,46 L57.1289062,46 L57.1289062,41.4589844 L56.9238281,41.4589844 C55.2246094,44.6523438 51.2988281,46.46875 47.4609375,46.46875 Z M51.1523438,39.3203125 C54.3164062,39.3203125 57.0703125,37.3867188 57.0703125,34.5449219 L57.0703125,32.3476563 L51.2695312,32.7285156 C48.5449219,32.9335938 47.0214844,34.1933594 47.0214844,36.0683594 C47.0214844,38.0898438 48.6914062,39.3203125 51.1523438,39.3203125 Z" id="Combined-Shape"></path>
            <path d="M72.1875,46 L72.1875,14.0957031 L82.2949219,14.0957031 L82.2949219,20.1015625 L82.5,20.1015625 C84.140625,15.8535156 87.4804688,13.4804688 92.3730469,13.4804688 C95.9179688,13.4804688 98.671875,14.5351562 100.576172,16.6445312 C102.480469,18.7832031 103.447266,21.7421875 103.447266,25.5214844 L103.447266,46 L93.0761719,46 L93.0761719,27.7480469 C93.0761719,24.1152344 91.3476562,21.9472656 87.9492188,21.9472656 C84.609375,21.9472656 82.5878906,24.4667969 82.5878906,27.953125 L82.5878906,46 L72.1875,46 Z" id="Path"></path>
            <path d="M123.632812,58.0117188 C114.580078,58.0117188 108.779297,53.8808594 108.193359,48.0800781 L118.242188,48.0800781 C118.740234,49.9257812 120.908203,51.2148438 123.867188,51.2148438 C127.851562,51.2148438 129.931641,49.0761719 129.931641,45.9121094 L129.931641,40.0527344 L129.726562,40.0527344 C128.4375,43.3925781 124.716797,45.7363281 120.029297,45.7363281 C112.412109,45.7363281 107.34375,39.9355469 107.34375,29.9453125 C107.34375,19.7792969 112.177734,13.6269531 120.175781,13.6269531 C124.775391,13.6269531 128.378906,16.1171875 129.785156,19.75 L129.990234,19.75 L129.990234,14.0957031 L140.302734,14.0957031 L140.302734,45.6484375 C140.302734,53.265625 133.535156,58.0117188 123.632812,58.0117188 Z M123.955078,38.0605469 C127.675781,38.0605469 129.960938,35.1894531 129.960938,30.0332031 C129.960938,24.9355469 127.646484,21.7421875 123.955078,21.7421875 C122.109375,21.7421875 120.644531,22.4746094 119.589844,23.96875 C118.505859,25.4628906 117.978516,27.484375 117.978516,30.0332031 C117.978516,35.1894531 120.205078,38.0605469 123.955078,38.0605469 Z" id="Combined-Shape"></path>
            <polygon id="Path" points="195.966797 46 185.244141 46 185.244141 28.9785156 168.398438 28.9785156 168.398438 46 157.646484 46 157.646484 3.72460938 168.398438 3.72460938 168.398438 20.3066406 185.244141 20.3066406 185.244141 3.72460938 195.966797 3.72460938"></polygon>
            <path d="M210.644531,46.46875 C204.755859,46.46875 199.921875,42.5136719 199.921875,36.7714844 C199.921875,30.7949219 204.550781,27.4550781 212.783203,26.9570312 L220.253906,26.5175781 L220.253906,24.7011719 C220.253906,22.1523438 218.4375,20.7460938 215.712891,20.7460938 C212.900391,20.7460938 211.142578,22.2109375 210.820313,24.1738281 L201.474609,24.1738281 C201.767578,17.6699219 207.333984,13.3339844 216.240234,13.3339844 C224.677734,13.2753906 230.478516,17.7871094 230.419922,24.1152344 L230.419922,46 L220.3125,46 L220.3125,41.4589844 L220.107422,41.4589844 C218.408203,44.6523438 214.482422,46.46875 210.644531,46.46875 Z M214.335938,39.3203125 C217.5,39.3203125 220.253906,37.3867188 220.253906,34.5449219 L220.253906,32.3476563 L214.453125,32.7285156 C211.728516,32.9335938 210.205078,34.1933594 210.205078,36.0683594 C210.205078,38.0898438 211.875,39.3203125 214.335938,39.3203125 Z" id="Combined-Shape"></path>
            <path d="M256.464844,35.921875 L265.839844,35.921875 C264.84375,42.5136719 258.955078,46.7617188 250.634766,46.7617188 C240.439453,46.7617188 234.404297,40.4921875 234.404297,30.2089844 C234.404297,19.8964844 240.527344,13.3339844 250.283203,13.3339844 C259.892578,13.3339844 266.015625,19.6328125 266.015625,29.3886719 L266.015625,32.3183594 L244.482422,32.3183594 L244.482422,32.9628906 C244.482422,36.7714844 247.03125,39.4082031 250.78125,39.4082031 C253.564453,39.4082031 255.732422,38.1191406 256.464844,35.921875 Z M250.458984,20.7167969 C247.265625,20.7167969 244.921875,23.0898438 244.628906,26.4003906 L256.230469,26.4003906 C256.054688,23.03125 253.740234,20.7167969 250.458984,20.7167969 Z" id="Combined-Shape"></path>
            <path d="M270.029297,46 L270.029297,14.0957031 L280.136719,14.0957031 L280.136719,20.2480469 L280.341797,20.2480469 C281.572266,16.1464844 285.117188,13.4804688 289.453125,13.4804688 C294.228516,13.4804688 297.421875,15.9414062 298.330078,20.2773438 L298.535156,20.2773438 C299.765625,16.2050781 303.632812,13.4804688 308.378906,13.4804688 C314.619141,13.4804688 318.867188,17.8457031 318.867188,24.3496094 L318.867188,46 L308.466797,46 L308.466797,26.9863281 C308.466797,23.6171875 306.972656,21.9179688 303.984375,21.9179688 C301.171875,21.9179688 299.414062,23.9394531 299.414062,27.0742188 L299.414062,46 L289.482422,46 L289.482422,26.8691406 C289.482422,23.6757812 287.900391,21.9179688 285.058594,21.9179688 C283.652344,21.9179688 282.539062,22.3867188 281.689453,23.3535156 C280.839844,24.3203125 280.429688,25.5800781 280.429688,27.1328125 L280.429688,46 L270.029297,46 Z" id="Path"></path>
            <polygon id="Path" points="323.818359 46 323.818359 14.0957031 334.189453 14.0957031 334.189453 46"></polygon>
            <path d="M328.945312,10.4628906 C326.103516,10.4628906 323.847656,8.1484375 323.847656,5.453125 C323.847656,2.69921875 326.103516,0.4140625 328.945312,0.4140625 C331.787109,0.4140625 334.072266,2.69921875 334.072266,5.453125 C334.072266,8.1484375 331.787109,10.4628906 328.945312,10.4628906 Z" id="Path"></path>
            <path d="M339.257812,46 L339.257812,14.0957031 L349.365234,14.0957031 L349.365234,20.1015625 L349.570312,20.1015625 C351.210938,15.8535156 354.550781,13.4804688 359.443359,13.4804688 C362.988281,13.4804688 365.742188,14.5351562 367.646484,16.6445312 C369.550781,18.7832031 370.517578,21.7421875 370.517578,25.5214844 L370.517578,46 L360.146484,46 L360.146484,27.7480469 C360.146484,24.1152344 358.417969,21.9472656 355.019531,21.9472656 C351.679688,21.9472656 349.658203,24.4667969 349.658203,27.953125 L349.658203,46 L339.257812,46 Z" id="Path"></path>
        </g>
    </g>
</svg>