<?xml version="1.0" encoding="UTF-8" standalone="no"?><!DOCTYPE svg PUBLIC "-//W3C//DTD SVG 1.1//EN" "http://www.w3.org/Graphics/SVG/1.1/DTD/svg11.dtd"><svg width="100%" height="100%" viewBox="0 0 840 136" version="1.1" xmlns="http://www.w3.org/2000/svg" xmlns:xlink="http://www.w3.org/1999/xlink" xml:space="preserve" xmlns:serif="http://www.serif.com/" style="fill-rule:evenodd;clip-rule:evenodd;stroke-linejoin:round;stroke-miterlimit:1.41421;"><g><path id="logo" d="M8.797,9.407c0,4.143 3.884,8.717 9.322,8.717c6.128,0 9.494,-3.97 9.494,-8.717c0,-3.971 -3.538,-8.804 -9.494,-8.804c-6.042,0 -9.322,4.833 -9.322,8.804Zm1.209,23.822l0,25.893c0,4.143 0.172,12.515 -9.84,12.515l0,11.566c22.959,0 26.239,-13.378 26.239,-24.081l0,-37.114l-20.024,0l0,11.221l3.625,0Zm49.284,31.935l0,-11.307l-6.215,0l0,-12.17c0,-3.711 1.036,-8.027 5.438,-8.027c5.092,0 5.092,5.093 5.092,8.027l0,23.477l22.182,0l0,-11.307l-4.056,0l0,-14.414c0,-9.063 -1.727,-18.988 -15.105,-18.988c-6.301,0 -12.601,5.351 -13.551,6.904l0,-26.929l-20.887,0l0,11.221l3.625,0l0,42.206l-3.625,0l0,11.307l27.102,0Zm55.584,0l0,-11.307l-5.179,0l0,-15.363c0,-3.539 1.122,-5.179 3.884,-5.179c3.453,0 3.626,2.848 3.626,9.839l0,22.01l22.354,0l0,-11.566l-5.179,0l0,-13.982c0,-3.712 0.864,-6.301 4.575,-6.301c4.057,0 3.28,6.56 3.28,10.703l0,21.146l21.923,0l0,-11.652l-4.229,0l0,-11.911c0,-10.53 -2.158,-20.715 -16.141,-20.715c-5.955,0 -10.012,3.194 -12.687,6.215c-1.381,-2.072 -4.143,-6.215 -12.861,-6.215c-5.437,0 -9.408,4.661 -10.789,6.301l-1.899,-5.093l-16.312,0l0,11.394l3.625,0l0,20.369l-3.625,0l0,11.307l25.634,0Z" style="fill:#4c5d69;"/><path d="M43.073,116.015l3.158,0c-0.036,-2.922 2.468,-5.19 5.662,-5.154c2.976,0 4.918,2.051 4.918,4.628c0,2.177 -0.799,3.575 -4.356,7.277l-9.218,9.618l0,2.25l17.276,0l0,-2.904l-12.794,0l0,-0.072l6.224,-6.388c4.809,-4.954 6.134,-7.077 6.134,-9.981c0,-3.956 -3.339,-7.277 -8.184,-7.277c-5.027,0 -8.82,3.412 -8.82,8.003Z" style="fill-rule:nonzero;"/><path d="M73.433,135.069c6.098,0 9.618,-5.281 9.618,-13.556c0,-8.22 -3.538,-13.501 -9.618,-13.501c-6.079,0 -9.654,5.317 -9.654,13.52c0,8.275 3.539,13.537 9.654,13.537Zm0,-2.849c-4.101,0 -6.369,-4.174 -6.369,-10.707c0,-6.351 2.323,-10.688 6.369,-10.634c4.047,0 6.334,4.229 6.334,10.653c0,6.514 -2.269,10.688 -6.334,10.688Z" style="fill-rule:nonzero;"/><path d="M93.123,134.634l3.158,0l0,-26.186l-3.194,0l-6.969,5.008l0,3.285l6.932,-4.827l0.073,0l0,22.72Z" style="fill-rule:nonzero;"/><path d="M111.923,135.069c5.463,0 9.328,-3.702 9.328,-8.946c0,-5.027 -3.648,-8.674 -8.656,-8.674c-2.541,0 -4.719,0.943 -5.953,2.703l-0.072,0l0.889,-8.801l12.304,0l0,-2.903l-14.99,0l-1.343,14.935l2.886,0c1.216,-2.105 3.212,-3.122 5.698,-3.122c3.466,0 5.97,2.468 5.97,5.953c0,3.52 -2.468,5.988 -6.024,5.988c-3.14,0 -5.517,-1.924 -5.807,-4.718l-3.213,0c0.291,4.446 3.975,7.585 8.983,7.585Z" style="fill-rule:nonzero;"/><path d="M381.619,116.015l3.158,0c-0.037,-2.922 2.468,-5.19 5.661,-5.154c2.977,0 4.918,2.051 4.918,4.628c0,2.177 -0.798,3.575 -4.355,7.277l-9.219,9.618l0,2.25l17.276,0l0,-2.904l-12.793,0l0,-0.072l6.224,-6.388c4.809,-4.954 6.134,-7.077 6.134,-9.981c0,-3.956 -3.339,-7.277 -8.185,-7.277c-5.026,0 -8.819,3.412 -8.819,8.003Z" style="fill-rule:nonzero;"/><path d="M411.979,135.069c6.097,0 9.618,-5.281 9.618,-13.556c0,-8.22 -3.539,-13.501 -9.618,-13.501c-6.079,0 -9.654,5.317 -9.654,13.52c0,8.275 3.538,13.537 9.654,13.537Zm0,-2.849c-4.101,0 -6.37,-4.174 -6.37,-10.707c0,-6.351 2.323,-10.688 6.37,-10.634c4.047,0 6.333,4.229 6.333,10.653c0,6.514 -2.268,10.688 -6.333,10.688Z" style="fill-rule:nonzero;"/><path d="M431.669,134.634l3.157,0l0,-26.186l-3.194,0l-6.968,5.008l0,3.285l6.932,-4.827l0.073,0l0,22.72Z" style="fill-rule:nonzero;"/><path d="M442.974,134.634l3.43,0l11.65,-23.156l0,-3.03l-17.33,0l0,2.903l14.1,0l0,0.073l-11.85,23.21Z" style="fill-rule:nonzero;"/><path d="M701.208,116.015l3.157,0c-0.036,-2.922 2.468,-5.19 5.662,-5.154c2.976,0 4.918,2.051 4.918,4.628c0,2.177 -0.798,3.575 -4.355,7.277l-9.219,9.618l0,2.25l17.276,0l0,-2.904l-12.794,0l0,-0.072l6.225,-6.388c4.809,-4.954 6.134,-7.077 6.134,-9.981c0,-3.956 -3.339,-7.277 -8.185,-7.277c-5.026,0 -8.819,3.412 -8.819,8.003Z" style="fill-rule:nonzero;"/><path d="M731.568,135.069c6.097,0 9.618,-5.281 9.618,-13.556c0,-8.22 -3.539,-13.501 -9.618,-13.501c-6.079,0 -9.654,5.317 -9.654,13.52c0,8.275 3.538,13.537 9.654,13.537Zm0,-2.849c-4.101,0 -6.37,-4.174 -6.37,-10.707c0,-6.351 2.323,-10.688 6.37,-10.634c4.047,0 6.333,4.229 6.333,10.653c0,6.514 -2.268,10.688 -6.333,10.688Z" style="fill-rule:nonzero;"/><path d="M751.257,134.634l3.158,0l0,-26.186l-3.194,0l-6.968,5.008l0,3.285l6.932,-4.827l0.072,0l0,22.72Z" style="fill-rule:nonzero;"/><path d="M769.386,135.069c6.406,0 10.145,-5.153 10.145,-13.973c0,-9.926 -5.263,-13.102 -9.945,-13.102c-5.372,0 -9.273,3.774 -9.273,8.946c0,4.973 3.72,8.657 8.692,8.657c3.321,0 6.225,-1.67 7.313,-4.283l0.055,0c-0.109,6.95 -2.486,10.906 -6.95,10.906c-2.704,0 -4.773,-1.252 -5.499,-3.666l-3.321,0c0.726,3.902 4.319,6.552 8.783,6.515Zm0.182,-12.34c-3.394,0.037 -5.989,-2.522 -5.952,-5.897c0,-3.285 2.649,-5.898 6.006,-5.898c3.376,0 5.989,2.649 5.989,5.988c0,3.339 -2.577,5.807 -6.043,5.807Z" style="fill-rule:nonzero;"/><path id="_.-hm" serif:id="./hm" d="M306.601,65.06c-0.543,0 -1.011,-0.196 -1.403,-0.589c-0.392,-0.392 -0.588,-0.89 -0.588,-1.493l0,-12.673c0,-0.603 0.196,-1.101 0.588,-1.493c0.392,-0.392 0.86,-0.588 1.403,-0.588l12.853,0c0.544,0 1.011,0.196 1.404,0.588c0.392,0.392 0.588,0.89 0.588,1.493l0,12.673c0,0.603 -0.196,1.101 -0.588,1.493c-0.393,0.393 -0.86,0.589 -1.404,0.589l-12.853,0Zm41.309,-64.63l13.628,0l-17.87,64.63l-13.632,0l17.874,-64.63Zm21.691,0l15.388,0c0,3.259 0.015,6.291 0.045,9.097c0.031,2.806 0.046,5.567 0.046,8.283c1.87,-0.302 3.816,-0.559 5.838,-0.77c2.022,-0.211 4.088,-0.317 6.2,-0.317c4.768,0 8.464,0.634 11.089,1.901c2.625,1.268 4.541,2.821 5.748,4.662c1.207,1.841 1.931,3.817 2.172,5.929c0.241,2.112 0.362,4.013 0.362,5.702l0,30.143l-15.388,0l0,-30.007c0,-1.539 -0.226,-2.911 -0.679,-4.118c-0.452,-1.207 -1.207,-2.188 -2.263,-2.942c-1.056,-0.754 -2.64,-1.132 -4.752,-1.132c-1.146,0 -2.217,0.106 -3.213,0.317c-0.996,0.211 -1.886,0.468 -2.67,0.77c-0.906,0.301 -1.72,0.663 -2.444,1.086l0,36.026l-15.479,0l0,-64.63Zm57.298,21.272l1.9,-0.769c1.268,-0.513 3.018,-1.087 5.25,-1.72c2.233,-0.634 4.888,-1.207 7.966,-1.72c3.078,-0.513 6.427,-0.77 10.047,-0.77c2.656,0 4.964,0.257 6.925,0.77c1.961,0.513 3.636,1.101 5.024,1.765c2.233,-0.603 4.782,-1.177 7.648,-1.72c2.867,-0.543 6.02,-0.815 9.46,-0.815c4.767,0 8.463,0.634 11.088,1.901c2.625,1.268 4.541,2.821 5.748,4.662c1.207,1.841 1.931,3.817 2.172,5.929c0.242,2.112 0.362,4.013 0.362,5.702l0,30.143l-15.388,0l0,-25.345c0,-1.871 0.015,-3.591 0.046,-5.16c0.03,-1.569 -0.076,-2.926 -0.317,-4.073c-0.242,-1.146 -0.724,-2.052 -1.449,-2.715c-0.724,-0.664 -1.81,-0.996 -3.258,-0.996c-1.147,0 -2.233,0.105 -3.259,0.317c-1.026,0.211 -1.961,0.467 -2.806,0.769c-0.965,0.302 -1.84,0.664 -2.625,1.086l0,36.117l-15.388,0l0,-25.345c0,-1.81 0.015,-3.515 0.045,-5.114c0.031,-1.6 -0.09,-2.972 -0.362,-4.119c-0.271,-1.146 -0.754,-2.052 -1.448,-2.715c-0.694,-0.664 -1.765,-0.996 -3.213,-0.996c-1.147,0 -2.233,0.105 -3.259,0.317c-1.026,0.211 -1.961,0.467 -2.806,0.769c-0.965,0.302 -1.84,0.664 -2.625,1.086l0,36.117l-15.388,0l-0.09,-43.358Z" style="fill:#333;"/><g><path id="squircle" d="M646.192,49.359l5.199,0c1.826,0 2.488,0.19 3.155,0.547c0.668,0.357 1.192,0.881 1.549,1.548c0.357,0.668 0.547,1.33 0.547,3.156l0,5.199c0,1.826 -0.19,2.488 -0.547,3.155c-0.357,0.668 -0.881,1.192 -1.549,1.549c-0.667,0.357 -1.329,0.547 -3.155,0.547l-5.199,0c-1.826,0 -2.488,-0.19 -3.156,-0.547c-0.667,-0.357 -1.191,-0.881 -1.548,-1.549c-0.357,-0.667 -0.547,-1.329 -0.547,-3.155l0,-5.199c0,-1.826 0.19,-2.488 0.547,-3.156c0.357,-0.667 0.881,-1.191 1.548,-1.548c0.668,-0.357 1.33,-0.547 3.156,-0.547Z" style="fill:#222;"/><path id="slash" d="M695.342,0.43l-18.501,64.612l-13.408,0l18.4,-64.612l13.509,0Z" style="fill:#222;fill-rule:nonzero;"/><path id="h" d="M717.062,0.43l0,23.63l0.301,0c3.619,-6.032 9.852,-8.646 15.18,-8.646c7.641,0 12.366,2.212 15.181,5.831c2.815,3.72 3.82,9.148 3.82,15.582l0,28.215l-14.276,0l0,-25.601c0,-8.545 -2.312,-12.767 -9.148,-12.767c-7.741,0 -11.058,4.323 -11.058,14.878l0,23.49l-14.276,0l0,-64.612l14.276,0Z" style="fill:#222;fill-rule:nonzero;"/><path id="m" d="M773.885,16.822l0,7.037l0.201,0c3.72,-5.328 9.048,-8.445 15.884,-8.445c6.535,0 12.366,2.212 15.18,8.646c3.117,-4.524 8.445,-8.646 15.683,-8.646c5.529,0 10.355,1.307 13.673,4.223c3.317,2.915 5.328,7.64 5.328,14.376l0,31.029l-14.276,0l0,-25.701c0,-3.519 -0.1,-6.635 -1.307,-8.948c-1.206,-2.312 -3.418,-3.719 -7.439,-3.719c-4.021,0 -6.333,1.709 -7.741,4.122c-1.407,2.513 -1.809,5.83 -1.809,9.047l0,25.199l-14.276,0l0,-25.4c0,-3.116 0.101,-6.233 -0.905,-8.746c-1.005,-2.513 -3.217,-4.222 -7.741,-4.222c-1.306,0 -3.82,0.502 -5.83,2.111c-2.111,1.709 -3.821,4.725 -3.821,9.852l0,26.405l-14.275,0l0,-48.22l13.471,0Z" style="fill:#222;fill-rule:nonzero;"/></g></g></svg>